<svg width="18" height="20" viewBox="0 0 18 20" fill="none" xmlns="http://www.w3.org/2000/svg">
<path d="M13.8888 12.3359C11.5951 12.3359 9.75586 14.0458 9.75586 16.158C9.75586 18.2702 11.5951 20.0002 13.8888 20.0002C16.1608 20.0002 18.0001 18.2702 18.0001 16.158C18.0001 14.0458 16.1608 12.3359 13.8888 12.3359ZM14.836 14.1137L15.1833 14.436L14.8379 14.7566L14.9775 15.1463L15.3957 15.2756L15.7411 14.955L16.0883 15.2778L15.5286 15.7982L14.8499 15.5877L13.2542 17.0707L13.4806 17.7021L12.9204 18.2229L12.5732 17.8992L12.9185 17.5791L12.7789 17.1898L12.3607 17.0605L12.0154 17.3811L11.6681 17.0583L12.2283 16.5379L12.907 16.7484L14.5027 15.2645L14.2763 14.634L14.836 14.1137V14.1137Z" fill="#053C75"/>
<path fill-rule="evenodd" clip-rule="evenodd" d="M0 0C0 6.23996 0 12.4799 0 18.7199H10.004C9.89193 18.5733 9.59251 18.159 9.5 18H1V1H14.2305V11.5C14.3973 11.5284 15.0649 11.8881 15.2252 11.9322V0H0Z" fill="#053C75"/>
<path fill-rule="evenodd" clip-rule="evenodd" d="M3 11C3 11.6666 3 11.3334 3 12H7H11V11H7H3Z" fill="#053C75"/>
<path fill-rule="evenodd" clip-rule="evenodd" d="M3 14C3 13.6667 3 13.3334 3 13H10L9.5 14H3Z" fill="#053C75"/>
<path d="M6.13477 6.69531V6.74481V8.12081H9.09451V6.69531H8.60434V7.5H7.5H6.62494V6.69531H6.13477Z" fill="#053C75"/>
<path d="M7.61236 5.25C7.13854 5.25 6.75 5.61119 6.75 6.05168C6.75 6.49217 7.13856 6.85338 7.61236 6.85338C8.08613 6.85338 8.47521 6.49217 8.47521 6.05168C8.47521 5.61119 8.08618 5.25 7.61236 5.25ZM7.61236 5.70569C7.82138 5.70569 7.98454 5.85736 7.98454 6.05168C7.98454 6.24603 7.82146 6.39768 7.61236 6.39768C7.40326 6.39768 7.24018 6.24603 7.24018 6.05168C7.24018 5.85736 7.40331 5.70569 7.61236 5.70569Z" fill="#053C75"/>
<path d="M7.61353 3.64258C5.89188 3.64258 4.5 4.89945 4.5 6.5C4.5 8.10053 5.89188 9.5891 7.61353 9.5891C9.33518 9.5891 10.7364 8.28694 10.7364 6.68641C10.7364 5.08586 9.33518 3.64258 7.61353 3.64258ZM7.61353 4.31842C9.07014 4.31842 10 5.33228 10 6.68641C10 8.04054 9.07014 8.96416 7.61353 8.96416C6.15692 8.96416 5.23256 7.8635 5.23256 6.50936C5.23256 5.15523 6.15692 4.31842 7.61353 4.31842Z" fill="#053C75"/>
<path fill-rule="evenodd" clip-rule="evenodd" d="M3 15C3 15.3333 3 15.6667 3 16H8.82274C8.87336 15.659 8.93127 15.3244 9 15H3Z" fill="#053C75"/>
</svg>
