<svg width="18" height="20" viewBox="0 0 18 20" fill="none" xmlns="http://www.w3.org/2000/svg">
<path d="M13.8888 12.3359C11.5951 12.3359 9.75586 14.0458 9.75586 16.158C9.75586 18.2702 11.5951 20.0002 13.8888 20.0002C16.1608 20.0002 18.0001 18.2702 18.0001 16.158C18.0001 14.0458 16.1608 12.3359 13.8888 12.3359ZM14.836 14.1137L15.1833 14.436L14.8379 14.7566L14.9775 15.1463L15.3957 15.2756L15.7411 14.955L16.0883 15.2778L15.5286 15.7982L14.8499 15.5877L13.2542 17.0707L13.4806 17.7021L12.9204 18.2229L12.5732 17.8992L12.9185 17.5791L12.7789 17.1898L12.3607 17.0605L12.0154 17.3811L11.6681 17.0583L12.2283 16.5379L12.907 16.7484L14.5027 15.2645L14.2763 14.634L14.836 14.1137V14.1137Z" fill="#053C75"/>
<path fill-rule="evenodd" clip-rule="evenodd" d="M0 0C0 6.23996 0 12.4799 0 18.7199H10.004C9.89193 18.5733 9.78666 18.4223 9.69415 18.2633H0.491134V0.456583H14.734V11.8243C14.9008 11.8527 15.0649 11.8881 15.2252 11.9322V0H0Z" fill="#053C75"/>
<path fill-rule="evenodd" clip-rule="evenodd" d="M3.72656 10.9141C3.72656 11.0661 3.72656 11.2182 3.72656 11.3702H11.5056V10.9141H3.72656Z" fill="#053C75"/>
<path fill-rule="evenodd" clip-rule="evenodd" d="M3.72656 12.6992C3.72656 12.8513 3.72656 13.0033 3.72656 13.1554H10.4139C10.5792 12.9912 10.7566 12.8385 10.9468 12.6992H3.72656Z" fill="#053C75"/>
<path d="M6.13477 6.69531V6.74481V8.12081H9.09451V6.69531H8.60434V7.66466H6.62494V6.69531H6.13477V6.69531Z" fill="#053C75"/>
<path d="M7.61236 5.25C7.13854 5.25 6.75 5.61119 6.75 6.05168C6.75 6.49217 7.13856 6.85338 7.61236 6.85338C8.08613 6.85338 8.47521 6.49217 8.47521 6.05168C8.47521 5.61119 8.08618 5.25 7.61236 5.25ZM7.61236 5.70569C7.82138 5.70569 7.98454 5.85736 7.98454 6.05168C7.98454 6.24603 7.82146 6.39768 7.61236 6.39768C7.40326 6.39768 7.24018 6.24603 7.24018 6.05168C7.24018 5.85736 7.40331 5.70569 7.61236 5.70569Z" fill="#053C75"/>
<path d="M7.61357 3.7832C5.89193 3.7832 4.49121 5.08536 4.49121 6.68591C4.49121 8.28643 5.89193 9.58859 7.61357 9.58859C9.33522 9.58859 10.7364 8.28643 10.7364 6.68591C10.7364 5.08536 9.33522 3.7832 7.61357 3.7832ZM7.61357 4.23891C9.07018 4.23891 10.2457 5.33177 10.2457 6.68591C10.2457 8.04004 9.07018 9.1329 7.61357 9.1329C6.15697 9.1329 4.98188 8.04004 4.98188 6.68591C4.98188 5.33177 6.15697 4.23891 7.61357 4.23891Z" fill="#053C75"/>
<path fill-rule="evenodd" clip-rule="evenodd" d="M3.72656 14.4805C3.72656 14.6325 3.72656 14.7845 3.72656 14.9366H9.31899C9.36761 14.7811 9.42323 14.6284 9.48924 14.4805H3.72656Z" fill="#053C75"/>
</svg>
